<svg width="898" height="490" viewBox="0 0 898 490" fill="none" xmlns="http://www.w3.org/2000/svg">
<path d="M889 489.16L897.66 480.5L889 471.84L880.34 480.5L889 489.16ZM2 0H0.5V95.0482H2H3.5V0H2ZM122 215.048V216.548H769V215.048V213.548H122V215.048ZM889 335.048H887.5V480.5H889H890.5V335.048H889ZM769 215.048V216.548C834.446 216.548 887.5 269.602 887.5 335.048H889H890.5C890.5 267.946 836.103 213.548 769 213.548V215.048ZM2 95.0482H0.5C0.5 162.151 54.8974 216.548 122 216.548V215.048V213.548C56.5543 213.548 3.5 160.494 3.5 95.0482H2Z" fill="#C19F88"/>
</svg>
