<svg width="933" height="465" viewBox="0 0 933 465" fill="none" xmlns="http://www.w3.org/2000/svg">
<path d="M9 464.66L17.6603 456L9 447.34L0.339746 456L9 464.66ZM931 0H929.5V74.7724H931H932.5V0H931ZM771 234.772V233.272H169V234.772V236.272H771V234.772ZM9 394.772H7.5V456H9H10.5V394.772H9ZM169 234.772V233.272C79.806 233.272 7.5 305.578 7.5 394.772H9H10.5C10.5 307.235 81.4628 236.272 169 236.272V234.772ZM931 74.7724H929.5C929.5 162.309 858.537 233.272 771 233.272V234.772V236.272C860.194 236.272 932.5 163.966 932.5 74.7724H931Z" fill="#C19F88"/>
</svg>
