<svg width="82" height="82" viewBox="0 0 82 82" fill="none" xmlns="http://www.w3.org/2000/svg">
<path d="M40.2355 3.7021L40.4238 2.53646L39.5625 1.7231L40.7376 1.54351L41.2536 0.478027L41.7924 1.52969L42.9744 1.68684L42.1306 2.51919L42.3433 3.68137L41.2833 3.14259L40.2355 3.7021Z" fill="white"/>
<path d="M33.7489 9.5063L33.9355 8.34066L33.0742 7.5273L34.251 7.34425L34.7654 6.28223L35.3041 7.33216L36.4826 7.48931L35.6423 8.32339L35.855 9.48385L34.795 8.94506L33.7489 9.5063Z" fill="white"/>
<path d="M27.2528 15.426L27.4411 14.2586L26.5781 13.4453L27.7549 13.2622L28.2693 12.2002L28.808 13.2501L29.99 13.4073L29.1462 14.2396L29.3606 15.4018L28.2989 14.863L27.2528 15.426Z" fill="white"/>
<path d="M48.2493 9.5063L48.0628 8.34066L48.9258 7.5273L47.7472 7.34425L47.2312 6.28223L46.6942 7.33216L45.5156 7.48931L46.356 8.32339L46.1433 9.48385L47.2033 8.94506L48.2493 9.5063Z" fill="white"/>
<path d="M54.745 15.426L54.5567 14.2586L55.4197 13.4453L54.2429 13.2622L53.7286 12.2002L53.1899 13.2501L52.0078 13.4073L52.8516 14.2396L52.6372 15.4018L53.6989 14.863L54.745 15.426Z" fill="white"/>
<path d="M51.1496 21.7933C51.1496 21.7933 49.0767 25.0606 44.0939 25.9931C44.0939 25.9931 42.9607 26.3834 44.1916 27.6025C45.018 28.7198 43.7243 28.9184 43.7243 28.9184C43.7243 28.9184 42.687 29.1826 43.407 30.0823C42.6574 29.8457 42.3488 30.5348 42.5789 30.9509C42.7341 31.1599 42.9869 32.291 42.028 33.0405C42.028 33.0405 40.6419 34.0869 42.2529 34.9556C42.2529 34.9556 45.0005 36.1989 45.9524 36.938C47.3838 38.0467 49.8856 43.3879 42.5737 49.7341C42.2232 50.0346 41.8589 50.342 41.4648 50.6494C41.4648 50.6494 43.2867 50.3454 45.4939 48.7066C47.5529 47.1732 49.9467 44.4723 51.4896 39.758C51.4774 39.7355 51.4687 39.7114 51.46 39.6906C51.0049 38.8134 49.4376 36.9121 48.8692 36.2524L48.8431 36.2196C48.3619 35.5703 48.2189 34.9625 48.4246 34.415C48.7454 33.5775 49.7427 33.3409 49.856 33.315C50.7295 33.1095 50.848 32.3238 50.8585 32.2271L50.855 32.1787C50.8323 31.8282 50.9631 31.4776 51.2089 31.2134C51.4443 30.963 51.7546 30.8232 52.0841 30.818C52.1277 30.7109 52.1835 30.6125 52.2532 30.521C52.4363 30.2878 52.7152 30.1428 53.0413 30.091C53.1371 27.9807 53.4056 24.1937 54.1117 22.7552C55.9179 19.0303 58.6481 18.5157 58.6481 18.5157C58.6481 18.5157 54.1919 17.7715 51.1496 21.7933Z" fill="white"/>
<path d="M79.8239 43.3532C79.8239 43.3532 77.4825 39.1966 72.0883 39.3779C72.0883 39.3779 67.9686 39.8528 63.8697 36.3783C63.8697 36.3783 62.7888 35.7066 62.5866 37.5284C62.203 38.9531 61.1709 38.024 61.1709 38.024C61.1709 38.024 60.2573 37.3454 59.9836 38.5369C59.6872 37.765 58.9009 37.9705 58.7057 38.4368C58.6359 38.7096 57.8549 39.6628 56.5874 39.3779C56.5874 39.3779 54.7899 38.9324 55.1334 40.8388C55.1334 40.8388 55.9197 43.9265 55.9388 45.1975C55.965 47.2076 52.8878 53.2827 41.4648 50.644C41.4648 50.644 49.7897 58.004 65.132 47.401C65.132 47.401 70.8818 42.9905 73.2512 42.4552C77.5749 41.4553 79.8239 43.3532 79.8239 43.3532Z" fill="white"/>
<path d="M63.8811 27.1154C63.8811 27.1154 60.4029 29.3465 55.1744 28.0289C55.1744 28.0289 53.9052 27.8994 54.5345 29.6228C54.8274 31.0682 53.4885 30.6883 53.4885 30.6883C53.4885 30.6883 52.3657 30.4759 52.6534 31.6674C52.0379 31.1028 51.4295 31.6346 51.4626 32.1372C51.5167 32.4065 51.2499 33.6119 49.9789 33.9106C49.9789 33.9106 48.171 34.3009 49.3321 35.8568C49.3321 35.8568 51.4173 38.2779 52.0013 39.4125C52.887 41.129 52.8748 47.451 42.7908 50.2952C42.3636 50.4161 41.9243 50.5318 41.457 50.6389C41.457 50.6389 43.136 51.0999 45.7215 50.6561C48.2808 50.2192 51.7224 48.8913 55.3121 45.3684C55.3173 45.308 55.3226 45.251 55.3226 45.2027C55.3069 44.2183 54.7472 41.8232 54.5328 40.9874L54.5258 40.9442C54.3968 40.231 54.5032 39.6663 54.8362 39.2674C55.1395 38.9099 55.598 38.7234 56.1664 38.7234C56.4628 38.7234 56.6894 38.7735 56.7295 38.7856C56.8289 38.8046 56.9387 38.8219 57.0433 38.8219C57.6745 38.8219 58.0528 38.3677 58.119 38.252L58.1365 38.2037C58.3335 37.7305 58.8147 37.4093 59.336 37.4093C59.5155 37.4093 59.6899 37.4473 59.8433 37.5215C60.1292 37.2625 60.4483 37.2211 60.6209 37.2211C60.8545 37.2211 61.0655 37.2867 61.2241 37.3592V37.354C61.2241 37.354 64.4128 30.88 66.2992 29.3621C69.7268 26.5714 72.593 27.2881 72.593 27.2881C72.593 27.2881 68.6424 24.589 63.8811 27.1154Z" fill="white"/>
<path d="M30.8544 21.7933C30.8544 21.7933 32.9256 25.0606 37.9101 25.9931C37.9101 25.9931 39.0416 26.3834 37.8142 27.6025C36.9843 28.7198 38.2797 28.9184 38.2797 28.9184C38.2797 28.9184 39.3223 29.1826 38.6005 30.0823C39.3484 29.8457 39.657 30.5348 39.4251 30.9509C39.2717 31.1599 39.0207 32.291 39.9778 33.0405C39.9778 33.0405 41.3638 34.0869 39.7529 34.9556C39.7529 34.9556 37.007 36.1989 36.0533 36.938C34.6202 38.0467 32.1201 43.3879 39.4338 49.7341C39.7843 50.0346 40.1487 50.342 40.5427 50.6494C40.5427 50.6494 38.7156 50.3454 36.5119 48.7066C34.4494 47.1732 32.0591 44.4723 30.5162 39.758C30.5266 39.7355 30.5371 39.7114 30.5458 39.6906C31.0009 38.8134 32.5699 36.9121 33.1383 36.2524L33.1662 36.2196C33.6509 35.5703 33.7886 34.9625 33.5811 34.415C33.2638 33.5775 32.2666 33.3409 32.1498 33.315C31.2781 33.1095 31.1578 32.3238 31.1473 32.2271L31.1525 32.1787C31.1735 31.8282 31.0444 31.4776 30.7969 31.2134C30.5633 30.963 30.2529 30.8232 29.9217 30.818C29.8816 30.7109 29.824 30.6125 29.7526 30.521C29.5695 30.2878 29.2923 30.1428 28.9645 30.091C28.8669 27.9807 28.6001 24.1937 27.8958 22.7552C26.0896 19.0303 23.3594 18.5157 23.3594 18.5157C23.3594 18.5157 27.8104 17.7715 30.8544 21.7933Z" fill="white"/>
<path d="M2.17969 43.3532C2.17969 43.3532 4.52112 39.1966 9.9188 39.3779C9.9188 39.3779 14.0351 39.8528 18.1356 36.3783C18.1356 36.3783 19.2148 35.7066 19.4205 37.5284C19.8058 38.9531 20.8362 38.024 20.8362 38.024C20.8362 38.024 21.748 37.3454 22.02 38.5369C22.3199 37.765 23.1061 37.9705 23.3014 38.4368C23.3711 38.7096 24.1505 39.6628 25.4197 39.3779C25.4197 39.3779 27.2172 38.9324 26.872 40.8388C26.872 40.8388 26.0857 43.9265 26.0682 45.1975C26.0421 47.2076 29.1175 53.2827 40.5422 50.644C40.5422 50.644 32.2173 58.004 16.8751 47.401C16.8751 47.401 11.1253 42.9905 8.75593 42.4552C4.43221 41.4553 2.17969 43.3532 2.17969 43.3532Z" fill="white"/>
<path d="M18.1143 27.1154C18.1143 27.1154 21.5959 29.3465 26.8245 28.0289C26.8245 28.0289 28.092 27.8994 27.4608 29.6228C27.1714 31.0682 28.5087 30.6883 28.5087 30.6883C28.5087 30.6883 29.6332 30.4759 29.342 31.6674C29.9574 31.1028 30.5676 31.6346 30.5363 32.1372C30.4805 32.4065 30.7472 33.6119 32.0147 33.9106C32.0147 33.9106 33.8261 34.3009 32.6633 35.8568C32.6633 35.8568 30.5816 38.2779 29.9958 39.4125C29.1084 41.129 29.1241 47.451 39.2029 50.2952C39.6335 50.4161 40.0711 50.5318 40.5384 50.6389C40.5384 50.6389 38.8612 51.0999 36.2757 50.6561C33.7163 50.2192 30.273 48.8913 26.6833 45.3684C26.6763 45.308 26.6746 45.251 26.6746 45.2027C26.6885 44.2183 27.2499 41.8232 27.4608 40.9874L27.4696 40.9442C27.6003 40.231 27.4957 39.6663 27.1575 39.2674C26.8559 38.9099 26.3991 38.7234 25.8307 38.7234C25.5344 38.7234 25.3094 38.7735 25.2676 38.7856C25.1682 38.8046 25.0584 38.8219 24.9538 38.8219C24.3227 38.8219 23.9461 38.3677 23.8833 38.252L23.8641 38.2037C23.6671 37.7305 23.1842 37.4093 22.6647 37.4093C22.4833 37.4093 22.309 37.4473 22.1538 37.5215C21.8714 37.2625 21.5506 37.2211 21.3763 37.2211C21.1461 37.2211 20.9352 37.2867 20.773 37.3592V37.354C20.773 37.354 17.586 30.88 15.6979 29.3621C12.2703 26.5714 9.40234 27.2881 9.40234 27.2881C9.40234 27.2881 13.3565 24.589 18.1143 27.1154Z" fill="white"/>
<path d="M0 74.9424H3.12424V75.4777H1.71554V80.7948H4.95484L5.12047 78.5032H5.65745L5.52843 81.3284H0V80.7948H1.14369V75.4777H0V74.9424Z" fill="white"/>
<path d="M14.7266 74.9424H17.2912V75.4794H16.1248V78.6742C16.1248 79.0005 16.137 79.282 16.1597 79.5169C16.1893 79.7483 16.2538 79.9624 16.3427 80.1489C16.6008 80.686 17.1116 80.9554 17.8735 80.9554C18.6667 80.9554 19.188 80.7136 19.4304 80.2387C19.5297 80.0557 19.5925 79.8588 19.6256 79.6395C19.65 79.4184 19.6605 79.1335 19.6605 78.7864V75.4794H18.4941V74.9424H21.0587V75.4794H20.2341V78.7864C20.2341 79.3079 20.1992 79.7085 20.1347 79.99C20.065 80.2681 19.9604 80.5046 19.8226 80.6929C19.6709 80.9035 19.4286 81.097 19.0886 81.2714C18.7539 81.4371 18.3529 81.5218 17.8874 81.5218C17.544 81.5218 17.1935 81.4579 16.8344 81.3284C16.4683 81.1902 16.1719 80.9588 15.9417 80.6359C15.7744 80.3941 15.668 80.1092 15.6227 79.7759C15.5756 79.453 15.553 79.0851 15.553 78.6793V75.4794H14.7283V74.9424H14.7266Z" fill="white"/>
<path d="M30.339 74.9424H32.5584V75.4777H31.6204L33.1861 77.5534L34.79 75.4777H33.92V74.9424H36.0174V75.4777H35.4333L33.5103 77.9748L35.6373 80.7948H36.2318V81.3284H33.92V80.7948H34.9522L33.1861 78.3892L31.345 80.7948H32.5584V81.3284H30.1211V80.7948H30.7051L32.867 77.9748L30.9475 75.4777H30.339V74.9424Z" fill="white"/>
<path d="M45.3047 74.9424H47.871V75.4794H46.7047V78.6742C46.7047 79.0005 46.7134 79.282 46.7378 79.5169C46.7674 79.7483 46.8302 79.9624 46.9209 80.1489C47.1789 80.686 47.6897 80.9554 48.4533 80.9554C49.2483 80.9554 49.7679 80.7136 50.0102 80.2387C50.1113 80.0557 50.1724 79.8588 50.2037 79.6395C50.2282 79.4184 50.2386 79.1335 50.2386 78.7864V75.4794H49.074V74.9424H51.6368V75.4794H50.8139V78.7864C50.8139 79.3079 50.7808 79.7085 50.7146 79.99C50.6448 80.2681 50.5402 80.5046 50.4025 80.6929C50.2473 80.9035 50.005 81.097 49.6703 81.2714C49.3338 81.4371 48.9328 81.5218 48.469 81.5218C48.1238 81.5218 47.7717 81.4579 47.416 81.3284C47.0464 81.1902 46.7483 80.9588 46.5199 80.6359C46.3507 80.3941 46.2444 80.1092 46.1991 79.7759C46.1537 79.453 46.1311 79.0851 46.1311 78.6793V75.4794H45.3064V74.9424H45.3047Z" fill="white"/>
<path d="M60.6971 74.9424H63.6382C64.0445 74.9424 64.36 74.9597 64.5901 74.9994C64.8116 75.0443 65.0138 75.1306 65.1951 75.2515C65.3956 75.3845 65.5665 75.5865 65.699 75.8524C65.8297 76.1184 65.8942 76.3826 65.8942 76.6554C65.8942 77.0561 65.7495 77.4308 65.4706 77.7796C65.1899 78.1302 64.7436 78.3322 64.1438 78.3927C64.3182 78.5585 64.5466 78.8503 64.822 79.2647C65.0923 79.6878 65.4148 80.199 65.7827 80.793H66.7886V81.3284H65.359C65.2439 81.0866 65.1167 80.8396 64.9685 80.5806C64.822 80.3147 64.6948 80.0885 64.5779 79.9002C64.4646 79.7189 64.3565 79.5497 64.2571 79.3908C64.0811 79.1197 63.9451 78.9159 63.8457 78.7881C63.7428 78.6621 63.633 78.5636 63.5127 78.4928C63.3819 78.4341 63.2233 78.403 63.0315 78.403H62.2069V80.793H63.2285V81.3284H60.6953V80.793H61.635V75.4777H60.6953V74.9424H60.6971ZM63.6156 75.4777H62.2069V77.8694H63.2704C63.5999 77.8694 63.9032 77.8453 64.1752 77.7986C64.4542 77.7641 64.7017 77.6467 64.9319 77.4584C65.1603 77.2771 65.2771 77.0008 65.2771 76.6226C65.2771 76.4327 65.2335 76.2531 65.1498 76.0787C65.0591 75.9043 64.9388 75.7696 64.7941 75.6677C64.5989 75.5382 64.2048 75.4777 63.6156 75.4777Z" fill="white"/>
<path d="M75.8594 74.9424H78.1032V75.4777H77.2315L78.9609 78.2908L80.6678 75.4777H79.7751V74.9424H81.998V75.4777H81.2727L79.2225 78.8555V80.7948H80.5754V81.3284H77.2925V80.7948H78.6506V78.8555L76.5794 75.4777H75.8594V74.9424Z" fill="white"/>
<path d="M4.53906 58.373H7.09494C7.9283 58.373 8.72854 58.4732 9.50088 58.6787C10.3151 58.8894 11.0438 59.2209 11.6906 59.6751C12.3758 60.1362 12.9163 60.7458 13.3173 61.509C13.7461 62.281 13.9693 63.2014 13.9833 64.2772C13.9833 65.0958 13.8542 65.8746 13.591 66.624C13.3295 67.3735 12.9232 68.0366 12.3741 68.6065C11.8162 69.2092 11.1118 69.6771 10.2628 70.0139C9.41545 70.3454 8.40775 70.506 7.2379 70.506H4.53906V58.373ZM6.07329 59.7528V69.128H6.99382C8.15669 69.128 9.14871 68.9294 9.96986 68.5305C10.3883 68.3198 10.7492 68.0781 11.0525 67.8035C11.3576 67.5272 11.6087 67.2129 11.8109 66.8554C12.2189 66.144 12.4246 65.3272 12.4246 64.4085C12.4072 63.6659 12.2764 63.0062 12.0323 62.4312C11.79 61.8631 11.4291 61.3761 10.9462 60.9668C10.4981 60.5714 9.91233 60.2726 9.19229 60.0637C8.51933 59.8582 7.73652 59.7545 6.83342 59.7545H6.07329V59.7528Z" fill="white"/>
<path d="M17.1992 58.373H23.7894V59.7528H18.7334V63.1513H22.0495V64.5345H18.7334V69.128H23.7894V70.5078H17.1992V58.373Z" fill="white"/>
<path d="M27 58.3213L35.5411 66.8969L35.5463 58.3334H37.0788V70.5493L28.5046 61.9304V70.5596H27V58.3213Z" fill="white"/>
<path d="M60.6107 58.3252C61.4388 58.3252 62.2338 58.4823 62.9939 58.7914C63.7663 59.1144 64.4305 59.5565 64.9919 60.1194C65.5603 60.6599 66.0066 61.3161 66.3239 62.0777C66.6517 62.8202 66.8121 63.606 66.8121 64.44C66.8121 65.5228 66.5348 66.5451 65.9769 67.5001C65.7991 67.8092 65.5951 68.0993 65.3685 68.3687C65.1418 68.6363 64.8873 68.8833 64.6101 69.113C64.3311 69.3409 64.0313 69.5447 63.7157 69.726C63.2502 69.9971 62.7551 70.2026 62.2355 70.3408C61.7125 70.4858 61.1738 70.5532 60.6089 70.5532C59.5088 70.5532 58.4767 70.2803 57.5091 69.726C56.5467 69.1838 55.7988 68.4429 55.2531 67.5001C54.9794 67.0252 54.7701 66.533 54.6307 66.027C54.4877 65.5211 54.418 64.9909 54.418 64.44C54.418 63.8909 54.4929 63.3538 54.6324 62.8375C54.7771 62.3229 54.9828 61.8325 55.2513 61.3697C55.797 60.4354 56.545 59.6946 57.5073 59.1524C58.4802 58.6032 59.5105 58.3252 60.6107 58.3252ZM60.6107 59.6635C59.7825 59.6635 58.9927 59.8794 58.2413 60.3007C57.5265 60.71 56.9477 61.2971 56.5066 62.0501C56.0882 62.7736 55.879 63.5714 55.879 64.4418C55.879 65.2724 56.0934 66.0616 56.524 66.8041C56.9686 67.5605 57.5439 68.1425 58.2431 68.5535C58.9945 68.9765 59.7843 69.1924 60.6124 69.1924C61.4562 69.1924 62.2442 68.9765 62.98 68.5535C63.707 68.1269 64.2823 67.5432 64.7077 66.8041C65.1261 66.0909 65.3371 65.3018 65.3371 64.4418C65.3371 63.5611 65.1279 62.7633 64.7077 62.0501C64.2736 61.292 63.6965 60.7066 62.98 60.3007C62.2442 59.8794 61.4545 59.6635 60.6107 59.6635Z" fill="white"/>
<path d="M48.8589 68.5532C48.1214 68.9763 47.3334 69.1921 46.4896 69.1921C45.6632 69.1921 44.8717 68.9763 44.122 68.5532C43.4229 68.1422 42.8475 67.5602 42.4029 66.8039C41.9758 66.0596 41.7596 65.2721 41.7596 64.4415C41.7596 63.5712 41.9688 62.7734 42.3873 62.0498C42.8283 61.2969 43.4054 60.7115 44.122 60.3005C44.8717 59.8791 45.6632 59.6633 46.4896 59.6633C47.3334 59.6633 48.1214 59.8791 48.8589 60.3005C49.3453 60.5768 49.7637 60.9411 50.1211 61.3832L51.1846 60.4887C51.0783 60.3661 50.9894 60.2314 50.8708 60.1209C50.3129 59.5579 49.6452 59.1158 48.8746 58.7929C48.1127 58.4838 47.3177 58.3267 46.4896 58.3267C45.3894 58.3267 44.3591 58.603 43.3915 59.1556C42.4291 59.6978 41.6812 60.4386 41.1337 61.3729C40.8635 61.8357 40.6578 62.3244 40.5113 62.8407C40.3718 63.357 40.2969 63.8941 40.2969 64.4432C40.2969 64.9958 40.3684 65.526 40.5113 66.0302C40.6508 66.5362 40.86 67.0284 41.1337 67.5033C41.6794 68.4479 42.4291 69.187 43.3915 69.7292C44.3591 70.2835 45.3894 70.5564 46.4896 70.5564C47.0527 70.5564 47.5949 70.489 48.1162 70.344C48.6375 70.2058 49.1309 70.0003 49.5981 69.7292C49.9137 69.5479 50.2118 69.3441 50.4925 69.1162C50.754 68.9003 50.9911 68.6637 51.2056 68.4133L50.1054 67.486C49.755 67.9073 49.3453 68.2683 48.8589 68.5532Z" fill="white"/>
<path d="M77.1397 65.4277C76.9479 64.9614 76.5992 64.5539 76.0884 64.1981C75.6002 63.8545 75.0789 63.5765 74.5262 63.3606C74.4757 63.3433 74.2979 63.2725 73.9875 63.1534C73.9858 63.1534 73.984 63.1516 73.9823 63.1516C73.6737 63.029 73.4017 62.9272 73.1803 62.846C72.408 62.4713 72.0262 61.9515 72.0262 61.2901C72.0262 61.0345 72.1064 60.7876 72.2702 60.5441C72.4428 60.2919 72.6799 60.0899 72.9816 59.9207C73.264 59.7532 73.5987 59.6703 73.9823 59.6703C74.725 59.6703 75.3143 59.9707 75.7571 60.5769L76.5661 59.3992C76.3359 59.1453 76.0797 58.9346 75.7972 58.7688C75.2864 58.4666 74.6988 58.3164 74.0451 58.3164C73.522 58.3164 73.0304 58.4045 72.5823 58.5823C72.1499 58.7499 71.7786 58.9778 71.4718 59.2662C71.1544 59.5822 70.9226 59.8982 70.7813 60.2142C70.621 60.5648 70.5425 60.9136 70.5425 61.2555C70.5425 61.853 70.6767 62.3625 70.9522 62.7821C71.219 63.1931 71.5624 63.5126 71.9773 63.7474C72.2859 63.9391 72.6817 64.1394 73.1594 64.3518C73.2954 64.4123 73.4349 64.4727 73.5831 64.5366C74.3188 64.8112 74.9081 65.1203 75.3422 65.457C75.7623 65.7799 75.9733 66.2462 75.9733 66.8558C75.9733 66.8437 75.9628 66.9767 75.9419 67.2495C75.8565 67.8764 75.6107 68.353 75.1992 68.6811C74.7756 69.023 74.3066 69.1957 73.7923 69.1957C73.4244 69.1957 73.0687 69.1094 72.7253 68.9418C72.3714 68.7847 72.082 68.536 71.8605 68.1889C71.6356 67.8815 71.5153 67.474 71.4996 66.9663L71.3358 67.0008L70.3438 68.4462C70.4309 68.6396 70.5355 68.8261 70.6558 69.004C71.0219 69.5169 71.4683 69.9003 71.9878 70.161C72.5405 70.4304 73.1158 70.5617 73.7121 70.5617C74.1845 70.5478 74.6605 70.4425 75.1417 70.2525C75.5985 70.0626 76.0012 69.8053 76.3534 69.4685C76.6968 69.1439 76.9671 68.7692 77.1676 68.3357C77.3558 67.9109 77.4535 67.4464 77.4535 66.9387C77.4552 66.4569 77.3489 65.9492 77.1397 65.4277Z" fill="white"/>
</svg>
