<svg width="82" height="82" viewBox="0 0 82 82" fill="none" xmlns="http://www.w3.org/2000/svg">
<g clip-path="url(#clip0_50275_6248)">
<path d="M40.2355 3.70161L40.4238 2.53597L39.5625 1.72261L40.7376 1.54302L41.2536 0.477539L41.7924 1.5292L42.9744 1.68635L42.1306 2.5187L42.3433 3.68088L41.2833 3.1421L40.2355 3.70161Z" fill="white"/>
<path d="M33.7489 9.5063L33.9355 8.34066L33.0742 7.5273L34.251 7.34425L34.7654 6.28223L35.3041 7.33216L36.4826 7.48931L35.6423 8.32339L35.855 9.48385L34.795 8.94506L33.7489 9.5063Z" fill="white"/>
<path d="M27.2528 15.426L27.4411 14.2586L26.5781 13.4453L27.7549 13.2622L28.2693 12.2002L28.808 13.2501L29.99 13.4073L29.1462 14.2396L29.3606 15.4018L28.2989 14.863L27.2528 15.426Z" fill="white"/>
<path d="M48.2493 9.5063L48.0628 8.34066L48.9258 7.5273L47.7472 7.34425L47.2312 6.28223L46.6942 7.33216L45.5156 7.48931L46.356 8.32339L46.1433 9.48385L47.2033 8.94506L48.2493 9.5063Z" fill="white"/>
<path d="M54.745 15.426L54.5567 14.2586L55.4197 13.4453L54.2429 13.2622L53.7286 12.2002L53.1899 13.2501L52.0078 13.4073L52.8516 14.2396L52.6372 15.4018L53.6989 14.863L54.745 15.426Z" fill="white"/>
<path d="M51.1496 21.7928C51.1496 21.7928 49.0767 25.0601 44.0939 25.9926C44.0939 25.9926 42.9607 26.3829 44.1916 27.602C45.018 28.7193 43.7243 28.9179 43.7243 28.9179C43.7243 28.9179 42.687 29.1821 43.407 30.0818C42.6574 29.8452 42.3488 30.5343 42.5789 30.9504C42.7341 31.1594 42.9869 32.2905 42.028 33.04C42.028 33.04 40.6419 34.0864 42.2529 34.9551C42.2529 34.9551 45.0005 36.1984 45.9524 36.9375C47.3838 38.0462 49.8856 43.3874 42.5737 49.7336C42.2232 50.0341 41.8589 50.3415 41.4648 50.6489C41.4648 50.6489 43.2867 50.3449 45.4939 48.7061C47.5529 47.1727 49.9467 44.4718 51.4896 39.7575C51.4774 39.735 51.4687 39.7109 51.46 39.6901C51.0049 38.8129 49.4376 36.9116 48.8692 36.2519L48.8431 36.2191C48.3619 35.5698 48.2189 34.962 48.4246 34.4145C48.7454 33.577 49.7427 33.3404 49.856 33.3145C50.7295 33.109 50.848 32.3233 50.8585 32.2266L50.855 32.1782C50.8323 31.8277 50.9631 31.4771 51.2089 31.2129C51.4443 30.9625 51.7546 30.8227 52.0841 30.8175C52.1277 30.7104 52.1835 30.612 52.2532 30.5205C52.4363 30.2873 52.7152 30.1423 53.0413 30.0905C53.1371 27.9802 53.4056 24.1932 54.1117 22.7547C55.9179 19.0298 58.6481 18.5152 58.6481 18.5152C58.6481 18.5152 54.1919 17.771 51.1496 21.7928Z" fill="white"/>
<path d="M79.8239 43.3527C79.8239 43.3527 77.4825 39.1961 72.0883 39.3774C72.0883 39.3774 67.9686 39.8523 63.8697 36.3778C63.8697 36.3778 62.7888 35.7061 62.5866 37.5279C62.203 38.9526 61.1709 38.0235 61.1709 38.0235C61.1709 38.0235 60.2573 37.3449 59.9836 38.5364C59.6872 37.7645 58.9009 37.97 58.7057 38.4363C58.6359 38.7091 57.8549 39.6623 56.5874 39.3774C56.5874 39.3774 54.7899 38.9319 55.1334 40.8383C55.1334 40.8383 55.9197 43.926 55.9388 45.197C55.965 47.2071 52.8878 53.2822 41.4648 50.6435C41.4648 50.6435 49.7897 58.0035 65.132 47.4005C65.132 47.4005 70.8818 42.99 73.2512 42.4547C77.5749 41.4548 79.8239 43.3527 79.8239 43.3527Z" fill="white"/>
<path d="M63.8811 27.1149C63.8811 27.1149 60.4029 29.346 55.1744 28.0284C55.1744 28.0284 53.9052 27.8989 54.5345 29.6223C54.8274 31.0677 53.4885 30.6878 53.4885 30.6878C53.4885 30.6878 52.3657 30.4754 52.6534 31.6669C52.0379 31.1023 51.4295 31.6341 51.4626 32.1367C51.5167 32.406 51.2499 33.6114 49.9789 33.9101C49.9789 33.9101 48.171 34.3004 49.3321 35.8563C49.3321 35.8563 51.4173 38.2774 52.0013 39.412C52.887 41.1285 52.8748 47.4505 42.7908 50.2947C42.3636 50.4156 41.9243 50.5313 41.457 50.6384C41.457 50.6384 43.136 51.0994 45.7215 50.6556C48.2808 50.2187 51.7224 48.8908 55.3121 45.3679C55.3173 45.3075 55.3226 45.2505 55.3226 45.2022C55.3069 44.2178 54.7472 41.8227 54.5328 40.9869L54.5258 40.9437C54.3968 40.2305 54.5032 39.6658 54.8362 39.2669C55.1395 38.9094 55.598 38.7229 56.1664 38.7229C56.4628 38.7229 56.6894 38.773 56.7295 38.7851C56.8289 38.8041 56.9387 38.8214 57.0433 38.8214C57.6745 38.8214 58.0528 38.3672 58.119 38.2515L58.1365 38.2032C58.3335 37.73 58.8147 37.4088 59.336 37.4088C59.5155 37.4088 59.6899 37.4468 59.8433 37.521C60.1292 37.262 60.4483 37.2206 60.6209 37.2206C60.8545 37.2206 61.0655 37.2862 61.2241 37.3587V37.3535C61.2241 37.3535 64.4128 30.8795 66.2992 29.3616C69.7268 26.5709 72.593 27.2876 72.593 27.2876C72.593 27.2876 68.6424 24.5885 63.8811 27.1149Z" fill="white"/>
<path d="M30.8544 21.7928C30.8544 21.7928 32.9256 25.0601 37.9101 25.9926C37.9101 25.9926 39.0416 26.3829 37.8142 27.602C36.9843 28.7193 38.2797 28.9179 38.2797 28.9179C38.2797 28.9179 39.3223 29.1821 38.6005 30.0818C39.3484 29.8452 39.657 30.5343 39.4251 30.9504C39.2717 31.1594 39.0207 32.2905 39.9778 33.04C39.9778 33.04 41.3638 34.0864 39.7529 34.9551C39.7529 34.9551 37.007 36.1984 36.0533 36.9375C34.6202 38.0462 32.1201 43.3874 39.4338 49.7336C39.7843 50.0341 40.1487 50.3415 40.5427 50.6489C40.5427 50.6489 38.7156 50.3449 36.5119 48.7061C34.4494 47.1727 32.0591 44.4718 30.5162 39.7575C30.5266 39.735 30.5371 39.7109 30.5458 39.6901C31.0009 38.8129 32.5699 36.9116 33.1383 36.2519L33.1662 36.2191C33.6509 35.5698 33.7886 34.962 33.5811 34.4145C33.2638 33.577 32.2666 33.3404 32.1498 33.3145C31.2781 33.109 31.1578 32.3233 31.1473 32.2266L31.1525 32.1782C31.1735 31.8277 31.0444 31.4771 30.7969 31.2129C30.5633 30.9625 30.2529 30.8227 29.9217 30.8175C29.8816 30.7104 29.824 30.612 29.7526 30.5205C29.5695 30.2873 29.2923 30.1423 28.9645 30.0905C28.8669 27.9802 28.6001 24.1932 27.8958 22.7547C26.0896 19.0298 23.3594 18.5152 23.3594 18.5152C23.3594 18.5152 27.8104 17.771 30.8544 21.7928Z" fill="white"/>
<path d="M2.17969 43.3527C2.17969 43.3527 4.52112 39.1961 9.9188 39.3774C9.9188 39.3774 14.0351 39.8523 18.1356 36.3778C18.1356 36.3778 19.2148 35.7061 19.4205 37.5279C19.8058 38.9526 20.8362 38.0235 20.8362 38.0235C20.8362 38.0235 21.748 37.3449 22.02 38.5364C22.3199 37.7645 23.1061 37.97 23.3014 38.4363C23.3711 38.7091 24.1505 39.6623 25.4197 39.3774C25.4197 39.3774 27.2172 38.9319 26.872 40.8383C26.872 40.8383 26.0857 43.926 26.0682 45.197C26.0421 47.2071 29.1175 53.2822 40.5422 50.6435C40.5422 50.6435 32.2173 58.0035 16.8751 47.4005C16.8751 47.4005 11.1253 42.99 8.75593 42.4547C4.43221 41.4548 2.17969 43.3527 2.17969 43.3527Z" fill="white"/>
<path d="M18.1143 27.1149C18.1143 27.1149 21.5959 29.346 26.8245 28.0284C26.8245 28.0284 28.092 27.8989 27.4608 29.6223C27.1714 31.0677 28.5087 30.6878 28.5087 30.6878C28.5087 30.6878 29.6332 30.4754 29.342 31.6669C29.9574 31.1023 30.5676 31.6341 30.5363 32.1367C30.4805 32.406 30.7472 33.6114 32.0147 33.9101C32.0147 33.9101 33.8261 34.3004 32.6633 35.8563C32.6633 35.8563 30.5816 38.2774 29.9958 39.412C29.1084 41.1285 29.1241 47.4505 39.2029 50.2947C39.6335 50.4156 40.0711 50.5313 40.5384 50.6384C40.5384 50.6384 38.8612 51.0994 36.2757 50.6556C33.7163 50.2187 30.273 48.8908 26.6833 45.3679C26.6763 45.3075 26.6746 45.2505 26.6746 45.2022C26.6885 44.2178 27.2499 41.8227 27.4608 40.9869L27.4696 40.9437C27.6003 40.2305 27.4957 39.6658 27.1575 39.2669C26.8559 38.9094 26.3991 38.7229 25.8307 38.7229C25.5344 38.7229 25.3094 38.773 25.2676 38.7851C25.1682 38.8041 25.0584 38.8214 24.9538 38.8214C24.3227 38.8214 23.9461 38.3672 23.8833 38.2515L23.8641 38.2032C23.6671 37.73 23.1842 37.4088 22.6647 37.4088C22.4833 37.4088 22.309 37.4468 22.1538 37.521C21.8714 37.262 21.5506 37.2206 21.3763 37.2206C21.1461 37.2206 20.9352 37.2862 20.773 37.3587V37.3535C20.773 37.3535 17.586 30.8795 15.6979 29.3616C12.2703 26.5709 9.40234 27.2876 9.40234 27.2876C9.40234 27.2876 13.3565 24.5885 18.1143 27.1149Z" fill="white"/>
<path d="M4.53906 58.373H7.09494C7.9283 58.373 8.72854 58.4732 9.50088 58.6787C10.3151 58.8894 11.0438 59.2209 11.6906 59.6751C12.3758 60.1362 12.9163 60.7458 13.3173 61.509C13.7461 62.281 13.9693 63.2014 13.9833 64.2772C13.9833 65.0958 13.8542 65.8746 13.591 66.624C13.3295 67.3735 12.9232 68.0366 12.3741 68.6065C11.8162 69.2092 11.1118 69.6771 10.2628 70.0139C9.41545 70.3454 8.40775 70.506 7.2379 70.506H4.53906V58.373ZM6.07329 59.7528V69.128H6.99382C8.15669 69.128 9.14871 68.9294 9.96986 68.5305C10.3883 68.3198 10.7492 68.0781 11.0525 67.8035C11.3576 67.5272 11.6087 67.2129 11.8109 66.8554C12.2189 66.144 12.4246 65.3272 12.4246 64.4085C12.4072 63.6659 12.2764 63.0062 12.0323 62.4312C11.79 61.8631 11.4291 61.3761 10.9462 60.9668C10.4981 60.5714 9.91233 60.2726 9.19229 60.0637C8.51933 59.8582 7.73652 59.7545 6.83342 59.7545H6.07329V59.7528Z" fill="white"/>
<path d="M17.1992 58.373H23.7894V59.7528H18.7334V63.1513H22.0495V64.5345H18.7334V69.128H23.7894V70.5078H17.1992V58.373Z" fill="white"/>
<path d="M27 58.3213L35.5411 66.8969L35.5463 58.3334H37.0788V70.5493L28.5046 61.9304V70.5596H27V58.3213Z" fill="white"/>
<path d="M60.6107 58.3252C61.4388 58.3252 62.2338 58.4823 62.9939 58.7914C63.7663 59.1144 64.4305 59.5565 64.9919 60.1194C65.5603 60.6599 66.0066 61.3161 66.3239 62.0777C66.6517 62.8202 66.8121 63.606 66.8121 64.44C66.8121 65.5228 66.5348 66.5451 65.9769 67.5001C65.7991 67.8092 65.5951 68.0993 65.3685 68.3687C65.1418 68.6363 64.8873 68.8833 64.6101 69.113C64.3311 69.3409 64.0313 69.5447 63.7157 69.726C63.2502 69.9971 62.7551 70.2026 62.2355 70.3408C61.7125 70.4858 61.1738 70.5532 60.6089 70.5532C59.5088 70.5532 58.4767 70.2803 57.5091 69.726C56.5467 69.1838 55.7988 68.4429 55.2531 67.5001C54.9794 67.0252 54.7701 66.533 54.6307 66.027C54.4877 65.5211 54.418 64.9909 54.418 64.44C54.418 63.8909 54.4929 63.3538 54.6324 62.8375C54.7771 62.3229 54.9828 61.8325 55.2513 61.3697C55.797 60.4354 56.545 59.6946 57.5073 59.1524C58.4802 58.6032 59.5105 58.3252 60.6107 58.3252ZM60.6107 59.6635C59.7825 59.6635 58.9927 59.8794 58.2413 60.3007C57.5265 60.71 56.9477 61.2971 56.5066 62.0501C56.0882 62.7736 55.879 63.5714 55.879 64.4418C55.879 65.2724 56.0934 66.0616 56.524 66.8041C56.9686 67.5605 57.5439 68.1425 58.2431 68.5535C58.9945 68.9765 59.7843 69.1924 60.6124 69.1924C61.4562 69.1924 62.2442 68.9765 62.98 68.5535C63.707 68.1269 64.2823 67.5432 64.7077 66.8041C65.1261 66.0909 65.3371 65.3018 65.3371 64.4418C65.3371 63.5611 65.1279 62.7633 64.7077 62.0501C64.2736 61.292 63.6965 60.7066 62.98 60.3007C62.2442 59.8794 61.4545 59.6635 60.6107 59.6635Z" fill="white"/>
<path d="M48.8589 68.5536C48.1214 68.9767 47.3334 69.1926 46.4896 69.1926C45.6632 69.1926 44.8717 68.9767 44.122 68.5536C43.4229 68.1426 42.8475 67.5607 42.4029 66.8044C41.9758 66.0601 41.7596 65.2725 41.7596 64.4419C41.7596 63.5716 41.9688 62.7739 42.3873 62.0503C42.8283 61.2974 43.4054 60.7119 44.122 60.3009C44.8717 59.8795 45.6632 59.6637 46.4896 59.6637C47.3334 59.6637 48.1214 59.8795 48.8589 60.3009C49.3453 60.5772 49.7637 60.9416 50.1211 61.3837L51.1846 60.4892C51.0783 60.3666 50.9894 60.2318 50.8708 60.1213C50.3129 59.5583 49.6452 59.1163 48.8746 58.7934C48.1127 58.4843 47.3177 58.3271 46.4896 58.3271C45.3894 58.3271 44.3591 58.6035 43.3915 59.1561C42.4291 59.6983 41.6812 60.439 41.1337 61.3733C40.8635 61.8361 40.6578 62.3248 40.5113 62.8411C40.3718 63.3574 40.2969 63.8945 40.2969 64.4436C40.2969 64.9962 40.3684 65.5264 40.5113 66.0306C40.6508 66.5366 40.86 67.0289 41.1337 67.5038C41.6794 68.4484 42.4291 69.1875 43.3915 69.7297C44.3591 70.284 45.3894 70.5568 46.4896 70.5568C47.0527 70.5568 47.5949 70.4895 48.1162 70.3445C48.6375 70.2063 49.1309 70.0008 49.5981 69.7297C49.9137 69.5484 50.2118 69.3446 50.4925 69.1167C50.754 68.9008 50.9911 68.6641 51.2056 68.4137L50.1054 67.4865C49.755 67.9078 49.3453 68.2687 48.8589 68.5536Z" fill="white"/>
<path d="M77.1396 65.4277C76.9478 64.9614 76.5991 64.5539 76.0883 64.1981C75.6001 63.8545 75.0788 63.5765 74.5261 63.3606C74.4756 63.3433 74.2978 63.2725 73.9874 63.1534L73.9822 63.1516C73.6736 63.029 73.4016 62.9272 73.1802 62.846C72.4079 62.4713 72.0261 61.9515 72.0261 61.2901C72.0261 61.0345 72.1063 60.7876 72.2701 60.5441C72.4427 60.2919 72.6798 60.0899 72.9815 59.9207C73.2639 59.7532 73.5986 59.6703 73.9822 59.6703C74.7249 59.6703 75.3142 59.9707 75.757 60.5769L76.566 59.3992C76.3358 59.1453 76.0796 58.9346 75.7971 58.7688C75.2863 58.4666 74.6987 58.3164 74.045 58.3164C73.5219 58.3164 73.0303 58.4045 72.5822 58.5823C72.1498 58.7499 71.7785 58.9778 71.4717 59.2662C71.1543 59.5822 70.9225 59.8982 70.7812 60.2142C70.6209 60.5648 70.5424 60.9136 70.5424 61.2555C70.5424 61.853 70.6766 62.3625 70.9521 62.7821C71.2189 63.1931 71.5623 63.5126 71.9772 63.7474C72.2858 63.9391 72.6816 64.1394 73.1593 64.3518C73.2953 64.4123 73.4348 64.4727 73.583 64.5366C74.3187 64.8112 74.908 65.1203 75.3421 65.457C75.7622 65.7799 75.9732 66.2462 75.9732 66.8558C75.9732 66.8437 75.9627 66.9767 75.9418 67.2495C75.8564 67.8764 75.6107 68.353 75.1992 68.6811C74.7756 69.023 74.3065 69.1957 73.7922 69.1957C73.4243 69.1957 73.0687 69.1094 72.7253 68.9418C72.3714 68.7847 72.0819 68.536 71.8604 68.1889C71.6355 67.8815 71.5152 67.474 71.4995 66.9663L71.3357 67.0008L70.3438 68.4462C70.4308 68.6396 70.5354 68.8261 70.6557 69.004C71.0218 69.5169 71.4682 69.9003 71.9877 70.161C72.5404 70.4304 73.1157 70.5617 73.712 70.5617C74.1844 70.5478 74.6604 70.4425 75.1416 70.2525C75.5984 70.0626 76.0011 69.8053 76.3533 69.4685C76.6967 69.1439 76.967 68.7692 77.1675 68.3357C77.3557 67.9109 77.4534 67.4464 77.4534 66.9387C77.4551 66.4569 77.3488 65.9492 77.1396 65.4277Z" fill="white"/>
<path d="M0 74.9424H3.12424V75.4777H1.71554V80.7948H4.95484L5.12047 78.5032H5.65745L5.52843 81.3284H0V80.7948H1.14369V75.4777H0V74.9424Z" fill="white"/>
<path d="M14.7266 74.9424H17.2912V75.4794H16.1248V78.6742C16.1248 79.0005 16.137 79.282 16.1597 79.5169C16.1893 79.7483 16.2538 79.9624 16.3427 80.1489C16.6008 80.686 17.1116 80.9554 17.8735 80.9554C18.6667 80.9554 19.188 80.7136 19.4304 80.2387C19.5297 80.0557 19.5925 79.8588 19.6256 79.6395C19.65 79.4184 19.6605 79.1335 19.6605 78.7864V75.4794H18.4941V74.9424H21.0587V75.4794H20.2341V78.7864C20.2341 79.3079 20.1992 79.7085 20.1347 79.99C20.065 80.2681 19.9604 80.5046 19.8226 80.6929C19.6709 80.9035 19.4286 81.097 19.0886 81.2714C18.7539 81.4371 18.3529 81.5218 17.8874 81.5218C17.544 81.5218 17.1935 81.4579 16.8344 81.3284C16.4683 81.1902 16.1719 80.9588 15.9417 80.6359C15.7744 80.3941 15.668 80.1092 15.6227 79.7759C15.5756 79.453 15.553 79.0851 15.553 78.6793V75.4794H14.7283V74.9424H14.7266Z" fill="white"/>
<path d="M30.339 74.9424H32.5584V75.4777H31.6204L33.1861 77.5534L34.79 75.4777H33.92V74.9424H36.0174V75.4777H35.4333L33.5103 77.9748L35.6373 80.7948H36.2318V81.3284H33.92V80.7948H34.9522L33.1861 78.3892L31.345 80.7948H32.5584V81.3284H30.1211V80.7948H30.7051L32.867 77.9748L30.9475 75.4777H30.339V74.9424Z" fill="white"/>
<path d="M45.3047 74.9424H47.871V75.4794H46.7047V78.6742C46.7047 79.0005 46.7134 79.282 46.7378 79.5169C46.7674 79.7483 46.8302 79.9624 46.9209 80.1489C47.1789 80.686 47.6897 80.9554 48.4533 80.9554C49.2483 80.9554 49.7679 80.7136 50.0102 80.2387C50.1113 80.0557 50.1724 79.8588 50.2037 79.6395C50.2282 79.4184 50.2386 79.1335 50.2386 78.7864V75.4794H49.074V74.9424H51.6368V75.4794H50.8139V78.7864C50.8139 79.3079 50.7808 79.7085 50.7146 79.99C50.6448 80.2681 50.5402 80.5046 50.4025 80.6929C50.2473 80.9035 50.005 81.097 49.6703 81.2714C49.3338 81.4371 48.9328 81.5218 48.469 81.5218C48.1238 81.5218 47.7717 81.4579 47.416 81.3284C47.0464 81.1902 46.7483 80.9588 46.5199 80.6359C46.3507 80.3941 46.2444 80.1092 46.1991 79.7759C46.1537 79.453 46.1311 79.0851 46.1311 78.6793V75.4794H45.3064V74.9424H45.3047Z" fill="white"/>
<path d="M60.6971 74.9424H63.6382C64.0445 74.9424 64.36 74.9597 64.5901 74.9994C64.8116 75.0443 65.0138 75.1306 65.1951 75.2515C65.3956 75.3845 65.5665 75.5865 65.699 75.8524C65.8297 76.1184 65.8942 76.3826 65.8942 76.6554C65.8942 77.0561 65.7495 77.4308 65.4706 77.7796C65.1899 78.1302 64.7436 78.3322 64.1438 78.3927C64.3182 78.5585 64.5466 78.8503 64.822 79.2647C65.0923 79.6878 65.4148 80.199 65.7827 80.793H66.7886V81.3284H65.359C65.2439 81.0866 65.1167 80.8396 64.9685 80.5806C64.822 80.3147 64.6948 80.0885 64.5779 79.9002C64.4646 79.7189 64.3565 79.5497 64.2571 79.3908C64.0811 79.1197 63.9451 78.9159 63.8457 78.7881C63.7428 78.6621 63.633 78.5636 63.5127 78.4928C63.3819 78.4341 63.2233 78.403 63.0315 78.403H62.2069V80.793H63.2285V81.3284H60.6953V80.793H61.635V75.4777H60.6953V74.9424H60.6971ZM63.6156 75.4777H62.2069V77.8694H63.2704C63.5999 77.8694 63.9032 77.8453 64.1752 77.7986C64.4542 77.7641 64.7017 77.6467 64.9319 77.4584C65.1603 77.2771 65.2771 77.0008 65.2771 76.6226C65.2771 76.4327 65.2335 76.2531 65.1498 76.0787C65.0591 75.9043 64.9388 75.7696 64.7941 75.6677C64.5989 75.5382 64.2048 75.4777 63.6156 75.4777Z" fill="white"/>
<path d="M75.8594 74.9424H78.1032V75.4777H77.2315L78.9609 78.2908L80.6678 75.4777H79.7751V74.9424H81.998V75.4777H81.2727L79.2225 78.8555V80.7948H80.5754V81.3284H77.2925V80.7948H78.6506V78.8555L76.5794 75.4777H75.8594V74.9424Z" fill="white"/>
</g>
<defs>
<clipPath id="clip0_50275_6248">
<rect width="82" height="82" fill="white"/>
</clipPath>
</defs>
</svg>
