<svg width="127" height="126" viewBox="0 0 127 126" fill="none" xmlns="http://www.w3.org/2000/svg">
<path d="M61.9559 5.68892L62.2453 3.89782L60.9219 2.64803L62.7275 2.37206L63.5204 0.734863L64.3482 2.35084L66.1646 2.5923L64.8679 3.87128L65.1948 5.65708L63.566 4.82919L61.9559 5.68892Z" fill="#261E1B"/>
<path d="M51.9899 14.6079L52.2765 12.8168L50.9531 11.567L52.7614 11.2857L53.5517 9.65381L54.3795 11.2671L56.1904 11.5086L54.8992 12.7902L55.226 14.5734L53.5972 13.7455L51.9899 14.6079Z" fill="#261E1B"/>
<path d="M42.0094 23.7038L42.2987 21.91L40.9727 20.6602L42.7809 20.379L43.5712 18.7471L44.399 20.3604L46.2153 20.6019L44.9187 21.8808L45.2482 23.6666L43.6168 22.8387L42.0094 23.7038Z" fill="#261E1B"/>
<path d="M74.2709 14.6079L73.9842 12.8168L75.3103 11.567L73.4993 11.2857L72.7064 9.65381L71.8813 11.2671L70.0703 11.5086L71.3616 12.7902L71.0347 14.5734L72.6635 13.7455L74.2709 14.6079Z" fill="#261E1B"/>
<path d="M84.2528 23.7038L83.9635 21.91L85.2896 20.6602L83.4813 20.379L82.691 18.7471L81.8632 20.3604L80.0469 20.6019L81.3435 21.8808L81.014 23.6666L82.6454 22.8387L84.2528 23.7038Z" fill="#261E1B"/>
<path d="M78.7331 33.4879C78.7331 33.4879 75.5478 38.5083 67.8914 39.9412C67.8914 39.9412 66.1501 40.5409 68.0414 42.4143C69.3112 44.1311 67.3235 44.4362 67.3235 44.4362C67.3235 44.4362 65.7295 44.8422 66.8359 46.2247C65.684 45.8611 65.2098 46.9199 65.5634 47.5594C65.8018 47.8804 66.1903 49.6185 64.7169 50.7701C64.7169 50.7701 62.5871 52.3781 65.0624 53.7128C65.0624 53.7128 69.2844 55.6233 70.7471 56.759C72.9466 58.4625 76.7908 66.6698 65.5554 76.4213C65.0169 76.883 64.457 77.3554 63.8516 77.8277C63.8516 77.8277 66.6511 77.3607 70.0426 74.8425C73.2064 72.4862 76.8846 68.3362 79.2555 61.0921C79.2367 61.0577 79.2233 61.0205 79.2099 60.9887C78.5107 59.6407 76.1023 56.7192 75.229 55.7056L75.1888 55.6552C74.4494 54.6574 74.2298 53.7234 74.5459 52.8823C75.0388 51.5953 76.5712 51.2318 76.7453 51.192C78.0874 50.8762 78.2696 49.6689 78.2857 49.5203L78.2803 49.446C78.2455 48.9073 78.4464 48.3687 78.8241 47.9627C79.1858 47.5779 79.6627 47.363 80.169 47.3551C80.2359 47.1905 80.3217 47.0393 80.4288 46.8987C80.7101 46.5404 81.1387 46.3175 81.6397 46.2379C81.787 42.9954 82.1996 37.1763 83.2846 34.9659C86.06 29.2424 90.2552 28.4516 90.2552 28.4516C90.2552 28.4516 83.4078 27.308 78.7331 33.4879Z" fill="#261E1B"/>
<path d="M122.794 66.6163C122.794 66.6163 119.196 60.2293 110.907 60.5079C110.907 60.5079 104.577 61.2377 98.2786 55.8988C98.2786 55.8988 96.6176 54.8666 96.3069 57.6661C95.7175 59.8552 94.1316 58.4276 94.1316 58.4276C94.1316 58.4276 92.7278 57.3848 92.3072 59.2157C91.8518 58.0296 90.6436 58.3454 90.3436 59.0618C90.2364 59.481 89.0362 60.9458 87.0887 60.5079C87.0887 60.5079 84.3267 59.8233 84.8544 62.7528C84.8544 62.7528 86.0626 67.4972 86.0921 69.4502C86.1323 72.5388 81.404 81.8738 63.8516 77.8193C63.8516 77.8193 76.6435 89.1284 100.218 72.836C100.218 72.836 109.053 66.059 112.694 65.2365C119.338 63.7001 122.794 66.6163 122.794 66.6163Z" fill="#261E1B"/>
<path d="M98.2924 41.6655C98.2924 41.6655 92.9479 45.0938 84.9138 43.0692C84.9138 43.0692 82.9636 42.8702 83.9306 45.5184C84.3807 47.7393 82.3233 47.1556 82.3233 47.1556C82.3233 47.1556 80.598 46.8292 81.0401 48.6601C80.0944 47.7924 79.1595 48.6097 79.2104 49.3818C79.2934 49.7958 78.8835 51.6479 76.9306 52.107C76.9306 52.107 74.1525 52.7066 75.9367 55.0974C75.9367 55.0974 79.1407 58.8176 80.0382 60.561C81.3991 63.1985 81.3803 72.9129 65.8853 77.2832C65.229 77.469 64.5539 77.6468 63.8359 77.8113C63.8359 77.8113 66.4158 78.5198 70.3886 77.8378C74.3213 77.1665 79.6095 75.126 85.1255 69.7128C85.1335 69.62 85.1415 69.5324 85.1415 69.4581C85.1174 67.9456 84.2575 64.2652 83.928 62.9809L83.9172 62.9146C83.719 61.8187 83.8824 60.951 84.3941 60.3381C84.8602 59.7888 85.5648 59.5022 86.4381 59.5022C86.8935 59.5022 87.2418 59.5792 87.3034 59.5978C87.4561 59.6269 87.6249 59.6535 87.7856 59.6535C88.7554 59.6535 89.3367 58.9556 89.4385 58.7778L89.4653 58.7035C89.7681 57.9765 90.5074 57.4829 91.3084 57.4829C91.5844 57.4829 91.8523 57.5413 92.088 57.6554C92.5274 57.2574 93.0176 57.1937 93.2828 57.1937C93.6418 57.1937 93.9659 57.2945 94.2097 57.406V57.398C94.2097 57.398 99.1095 47.4501 102.008 45.1177C107.275 40.8296 111.679 41.9308 111.679 41.9308C111.679 41.9308 105.609 37.7834 98.2924 41.6655Z" fill="#261E1B"/>
<path d="M47.5441 33.4879C47.5441 33.4879 50.7267 38.5083 58.3858 39.9412C58.3858 39.9412 60.1244 40.5409 58.2384 42.4143C56.9632 44.1311 58.9537 44.4362 58.9537 44.4362C58.9537 44.4362 60.5557 44.8422 59.4466 46.2247C60.5959 45.8611 61.07 46.9199 60.7137 47.5594C60.478 47.8804 60.0922 49.6185 61.563 50.7701C61.563 50.7701 63.6927 52.3781 61.2174 53.7128C61.2174 53.7128 56.9981 55.6233 55.5327 56.759C53.3306 58.4625 49.489 66.6698 60.7271 76.4213C61.2656 76.883 61.8255 77.3554 62.431 77.8277C62.431 77.8277 59.6234 77.3607 56.2372 74.8425C53.0681 72.4862 49.3952 68.3362 47.0244 61.0921C47.0405 61.0577 47.0565 61.0205 47.0699 60.9887C47.7691 59.6407 50.1802 56.7192 51.0535 55.7056L51.0964 55.6552C51.8411 54.6574 52.0527 53.7234 51.734 52.8823C51.2464 51.5953 49.714 51.2318 49.5345 51.192C48.1951 50.8762 48.0102 49.6689 47.9942 49.5203L48.0022 49.446C48.0343 48.9073 47.8361 48.3687 47.4557 47.9627C47.0967 47.5779 46.6199 47.363 46.1109 47.3551C46.0492 47.1905 45.9608 47.0393 45.851 46.8987C45.5697 46.5404 45.1438 46.3175 44.6401 46.2379C44.4901 42.9954 44.0802 37.1763 42.9979 34.9659C40.2226 29.2424 36.0273 28.4516 36.0273 28.4516C36.0273 28.4516 42.8667 27.308 47.5441 33.4879Z" fill="#261E1B"/>
<path d="M3.48438 66.6163C3.48438 66.6163 7.08219 60.2293 15.3762 60.5079C15.3762 60.5079 21.7011 61.2377 28.002 55.8988C28.002 55.8988 29.6603 54.8666 29.9764 57.6661C30.5684 59.8552 32.1517 58.4276 32.1517 58.4276C32.1517 58.4276 33.5528 57.3848 33.9707 59.2157C34.4315 58.0296 35.6397 58.3454 35.9397 59.0618C36.0469 59.481 37.2443 60.9458 39.1946 60.5079C39.1946 60.5079 41.9566 59.8233 41.4262 62.7528C41.4262 62.7528 40.218 67.4972 40.1912 69.4502C40.151 72.5388 44.8766 81.8738 62.4317 77.8193C62.4317 77.8193 49.6398 89.1284 26.0651 72.836C26.0651 72.836 17.23 66.059 13.5893 65.2365C6.94556 63.7001 3.48438 66.6163 3.48438 66.6163Z" fill="#261E1B"/>
<path d="M27.9687 41.6655C27.9687 41.6655 33.3185 45.0938 41.3527 43.0692C41.3527 43.0692 43.3002 42.8702 42.3305 45.5184C41.8858 47.7393 43.9405 47.1556 43.9405 47.1556C43.9405 47.1556 45.6684 46.8292 45.221 48.6601C46.1667 47.7924 47.1043 48.6097 47.0561 49.3818C46.9704 49.7958 47.3803 51.6479 49.3279 52.107C49.3279 52.107 52.1113 52.7066 50.3244 55.0974C50.3244 55.0974 47.1258 58.8176 46.2256 60.561C44.8621 63.1985 44.8862 72.9129 60.3731 77.2832C61.0348 77.469 61.7072 77.6468 62.4252 77.8113C62.4252 77.8113 59.848 78.5198 55.8752 77.8378C51.9425 77.1665 46.6516 75.126 41.1357 69.7128C41.1249 69.62 41.1223 69.5324 41.1223 69.4581C41.1437 67.9456 42.0063 64.2652 42.3305 62.9809L42.3439 62.9146C42.5448 61.8187 42.384 60.951 41.8643 60.3381C41.4009 59.7888 40.699 59.5022 39.8257 59.5022C39.3702 59.5022 39.0247 59.5792 38.9604 59.5978C38.8077 59.6269 38.6389 59.6535 38.4782 59.6535C37.5084 59.6535 36.9297 58.9556 36.8333 58.7778L36.8038 58.7035C36.5011 57.9765 35.759 57.4829 34.9607 57.4829C34.6821 57.4829 34.4142 57.5413 34.1758 57.6554C33.7418 57.2574 33.2489 57.1937 32.981 57.1937C32.6274 57.1937 32.3032 57.2945 32.0541 57.406V57.398C32.0541 57.398 27.157 47.4501 24.2557 45.1177C18.9889 40.8296 14.582 41.9308 14.582 41.9308C14.582 41.9308 20.6579 37.7834 27.9687 41.6655Z" fill="#261E1B"/>
<path d="M0.132812 115.155H4.93347V115.978H2.76889V124.148H7.74635L8.00085 120.627H8.82596L8.62772 124.968H0.132812V124.148H1.8902V115.978H0.132812V115.155Z" fill="#261E1B"/>
<path d="M22.7617 115.155H26.7024V115.981H24.9102V120.889C24.9102 121.391 24.929 121.823 24.9638 122.184C25.0093 122.54 25.1085 122.869 25.2451 123.156C25.6416 123.981 26.4265 124.395 27.5972 124.395C28.8161 124.395 29.6171 124.023 29.9895 123.294C30.1422 123.012 30.2386 122.71 30.2895 122.373C30.327 122.033 30.3431 121.595 30.3431 121.062V115.981H28.5509V115.155H32.4916V115.981H31.2245V121.062C31.2245 121.863 31.1709 122.479 31.0718 122.911C30.9646 123.339 30.8039 123.702 30.5923 123.991C30.3592 124.315 29.9868 124.612 29.4644 124.88C28.9501 125.135 28.3339 125.265 27.6186 125.265C27.0909 125.265 26.5524 125.167 26.0006 124.968C25.438 124.756 24.9826 124.4 24.6289 123.904C24.3718 123.532 24.2083 123.095 24.1387 122.582C24.0664 122.086 24.0315 121.521 24.0315 120.897V115.981H22.7644V115.155H22.7617Z" fill="#261E1B"/>
<path d="M46.7489 115.155H50.1592V115.978H48.718L51.1236 119.167L53.5883 115.978H52.2515V115.155H55.4742V115.978H54.5768L51.6219 119.815L54.8902 124.148H55.8037V124.968H52.2515V124.148H53.8374L51.1236 120.452L48.2947 124.148H50.1592V124.968H46.4141V124.148H47.3115L50.6334 119.815L47.6839 115.978H46.7489V115.155Z" fill="#261E1B"/>
<path d="M69.7461 115.155H73.6895V115.981H71.8973V120.889C71.8973 121.391 71.9107 121.823 71.9482 122.184C71.9937 122.54 72.0902 122.869 72.2295 123.156C72.6259 123.981 73.4109 124.395 74.5843 124.395C75.8058 124.395 76.6042 124.023 76.9765 123.294C77.1319 123.012 77.2257 122.71 77.2739 122.373C77.3114 122.033 77.3275 121.595 77.3275 121.062V115.981H75.538V115.155H79.476V115.981H78.2115V121.062C78.2115 121.863 78.1606 122.479 78.0588 122.911C77.9517 123.339 77.7909 123.702 77.5793 123.991C77.3409 124.315 76.9685 124.612 76.4542 124.88C75.9371 125.135 75.321 125.265 74.6084 125.265C74.0779 125.265 73.5368 125.167 72.9903 124.968C72.4224 124.756 71.9643 124.4 71.6133 123.904C71.3535 123.532 71.19 123.095 71.1204 122.582C71.0507 122.086 71.0159 121.521 71.0159 120.897V115.981H69.7488V115.155H69.7461Z" fill="#261E1B"/>
<path d="M93.3972 115.155H97.9166C98.5408 115.155 99.0257 115.182 99.3793 115.243C99.7195 115.312 100.03 115.445 100.309 115.63C100.617 115.835 100.879 116.145 101.083 116.554C101.284 116.962 101.383 117.368 101.383 117.788C101.383 118.403 101.161 118.979 100.732 119.515C100.301 120.054 99.615 120.364 98.6935 120.457C98.9614 120.712 99.3123 121.16 99.7356 121.797C100.151 122.447 100.646 123.232 101.212 124.145H102.757V124.968H100.561C100.384 124.596 100.188 124.217 99.9606 123.819C99.7356 123.41 99.54 123.063 99.3605 122.773C99.1864 122.495 99.0203 122.235 98.8676 121.991C98.597 121.574 98.3881 121.261 98.2354 121.065C98.0773 120.871 97.9085 120.72 97.7237 120.611C97.5228 120.521 97.279 120.473 96.9843 120.473H95.7172V124.145H97.287V124.968H93.3945V124.145H94.8385V115.978H93.3945V115.155H93.3972ZM97.8818 115.978H95.7172V119.653H97.3513C97.8576 119.653 98.3238 119.616 98.7417 119.544C99.1703 119.491 99.5507 119.311 99.9044 119.021C100.255 118.743 100.435 118.318 100.435 117.737C100.435 117.445 100.368 117.169 100.239 116.901C100.1 116.633 99.9151 116.426 99.6927 116.27C99.3927 116.071 98.7872 115.978 97.8818 115.978Z" fill="#261E1B"/>
<path d="M116.699 115.155H120.147V115.978H118.808L121.465 120.3L124.088 115.978H122.716V115.155H126.132V115.978H125.017L121.867 121.168V124.148H123.946V124.968H118.901V124.148H120.988V121.168L117.806 115.978H116.699V115.155Z" fill="#261E1B"/>
<path d="M7.10938 89.6953H11.0367C12.3172 89.6953 13.5469 89.8492 14.7336 90.165C15.9847 90.4887 17.1045 90.9982 18.0984 91.696C19.1512 92.4045 19.9817 93.3412 20.5978 94.514C21.2568 95.7002 21.5997 97.1145 21.6212 98.7676C21.6212 100.025 21.4229 101.222 21.0184 102.374C20.6166 103.525 19.9924 104.544 19.1485 105.42C18.2913 106.346 17.209 107.065 15.9043 107.582C14.6024 108.092 13.0539 108.339 11.2564 108.339H7.10938V89.6953ZM9.46684 91.8154V106.221H10.8813C12.6682 106.221 14.1925 105.916 15.4543 105.303C16.0972 104.979 16.6517 104.608 17.1179 104.186C17.5867 103.761 17.9725 103.279 18.2832 102.729C18.9101 101.636 19.2262 100.381 19.2262 98.9692C19.1994 97.8282 18.9985 96.8146 18.6234 95.931C18.2511 95.058 17.6965 94.3097 16.9545 93.6808C16.266 93.0732 15.3659 92.6141 14.2595 92.2931C13.2254 91.9773 12.0225 91.8181 10.6349 91.8181H9.46684V91.8154Z" fill="#261E1B"/>
<path d="M26.5625 89.6953H36.6889V91.8154H28.92V97.0375H34.0153V99.1629H28.92V106.221H36.6889V108.341H26.5625V89.6953Z" fill="#261E1B"/>
<path d="M41.6211 89.6157L54.7452 102.793L54.7532 89.6343H57.108V108.405L43.933 95.1615V108.421H41.6211V89.6157Z" fill="#261E1B"/>
<path d="M93.2695 89.6221C94.542 89.6221 95.7636 89.8635 96.9316 90.3385C98.1184 90.8347 99.139 91.514 100.002 92.379C100.875 93.2096 101.561 94.2179 102.048 95.3881C102.552 96.5291 102.798 97.7364 102.798 99.0181C102.798 100.682 102.373 102.253 101.515 103.72C101.242 104.195 100.929 104.641 100.58 105.055C100.232 105.466 99.8409 105.845 99.415 106.198C98.9863 106.549 98.5256 106.862 98.0407 107.14C97.3254 107.557 96.5646 107.873 95.7663 108.085C94.9626 108.308 94.1348 108.411 93.2668 108.411C91.5764 108.411 89.9905 107.992 88.5037 107.14C87.0249 106.307 85.8756 105.169 85.0371 103.72C84.6165 102.99 84.2951 102.234 84.0807 101.457C83.8611 100.679 83.7539 99.8645 83.7539 99.0181C83.7539 98.1743 83.8691 97.349 84.0834 96.5556C84.3058 95.7649 84.6219 95.0113 85.0344 94.3002C85.8729 92.8646 87.0222 91.7263 88.501 90.8931C89.9958 90.0493 91.5791 89.6221 93.2695 89.6221ZM93.2695 91.6785C91.997 91.6785 90.7834 92.0102 89.6288 92.6577C88.5304 93.2865 87.641 94.1887 86.9633 95.3456C86.3203 96.4574 85.9989 97.6834 85.9989 99.0207C85.9989 100.297 86.3284 101.51 86.9901 102.651C87.6732 103.813 88.5572 104.707 89.6315 105.339C90.7861 105.989 91.9997 106.32 93.2722 106.32C94.5688 106.32 95.7797 105.989 96.9102 105.339C98.0273 104.683 98.9113 103.786 99.565 102.651C100.208 101.555 100.532 100.342 100.532 99.0207C100.532 97.6674 100.211 96.4415 99.565 95.3456C98.8979 94.1808 98.0112 93.2812 96.9102 92.6577C95.7797 92.0102 94.5661 91.6785 93.2695 91.6785Z" fill="#261E1B"/>
<path d="M75.2109 105.338C74.0778 105.988 72.8669 106.32 71.5703 106.32C70.3005 106.32 69.0842 105.988 67.9323 105.338C66.858 104.706 65.974 103.812 65.2908 102.65C64.6345 101.506 64.3023 100.296 64.3023 99.02C64.3023 97.6827 64.6238 96.4567 65.2667 95.3449C65.9445 94.188 66.8312 93.2885 67.9323 92.657C69.0842 92.0095 70.3005 91.6778 71.5703 91.6778C72.8669 91.6778 74.0778 92.0095 75.2109 92.657C75.9584 93.0815 76.6013 93.6414 77.1505 94.3207L78.7846 92.9462C78.6212 92.7578 78.4846 92.5508 78.3024 92.381C77.4452 91.516 76.4191 90.8367 75.2351 90.3405C74.0644 89.8655 72.8428 89.624 71.5703 89.624C69.8799 89.624 68.2966 90.0486 66.8098 90.8977C65.331 91.7309 64.1818 92.8692 63.3406 94.3048C62.9253 95.0159 62.6092 95.7668 62.3842 96.5602C62.1699 97.3536 62.0547 98.1789 62.0547 99.0227C62.0547 99.8718 62.1645 100.686 62.3842 101.461C62.5985 102.239 62.92 102.995 63.3406 103.725C64.1791 105.176 65.331 106.312 66.8098 107.145C68.2966 107.997 69.8799 108.416 71.5703 108.416C72.4356 108.416 73.2687 108.313 74.0697 108.09C74.8707 107.877 75.6289 107.562 76.3468 107.145C76.8317 106.866 77.2898 106.553 77.7211 106.203C78.1229 105.871 78.4873 105.508 78.8168 105.123L77.1264 103.698C76.5879 104.346 75.9584 104.9 75.2109 105.338Z" fill="#261E1B"/>
<path d="M118.665 100.535C118.37 99.819 117.835 99.1928 117.05 98.6462C116.3 98.1181 115.499 97.6909 114.649 97.3592C114.572 97.3327 114.298 97.2239 113.822 97.0408C113.819 97.0408 113.816 97.0382 113.814 97.0382C113.339 96.8498 112.922 96.6932 112.581 96.5685C111.395 95.9927 110.808 95.194 110.808 94.1777C110.808 93.785 110.931 93.4055 111.183 93.0314C111.448 92.644 111.812 92.3335 112.276 92.0735C112.71 91.8161 113.224 91.6887 113.814 91.6887C114.955 91.6887 115.86 92.1504 116.541 93.0818L117.784 91.2721C117.43 90.8821 117.036 90.5583 116.602 90.3036C115.817 89.8393 114.915 89.6084 113.91 89.6084C113.106 89.6084 112.351 89.7437 111.662 90.017C110.998 90.2744 110.427 90.6247 109.956 91.0678C109.468 91.5534 109.112 92.039 108.895 92.5246C108.649 93.0632 108.528 93.5992 108.528 94.1246C108.528 95.0427 108.734 95.8255 109.158 96.4703C109.567 97.1018 110.095 97.5927 110.733 97.9536C111.207 98.2481 111.815 98.556 112.549 98.8823C112.758 98.9752 112.972 99.0681 113.2 99.1663C114.331 99.5882 115.236 100.063 115.903 100.581C116.549 101.077 116.873 101.793 116.873 102.73C116.873 102.711 116.857 102.916 116.825 103.335C116.693 104.298 116.316 105.03 115.683 105.535C115.033 106.06 114.312 106.325 113.522 106.325C112.956 106.325 112.41 106.193 111.882 105.935C111.338 105.694 110.894 105.312 110.553 104.778C110.208 104.306 110.023 103.68 109.999 102.9L109.747 102.953L108.223 105.174C108.357 105.471 108.517 105.758 108.702 106.031C109.265 106.819 109.951 107.408 110.749 107.809C111.598 108.223 112.482 108.424 113.398 108.424C114.124 108.403 114.856 108.241 115.595 107.949C116.297 107.657 116.916 107.262 117.457 106.745C117.985 106.246 118.4 105.67 118.708 105.004C118.997 104.351 119.147 103.637 119.147 102.857C119.15 102.117 118.987 101.337 118.665 100.535Z" fill="#261E1B"/>
</svg>
