<svg width="18" height="18" viewBox="0 0 18 18" fill="none" xmlns="http://www.w3.org/2000/svg">
<path d="M5.59285 9.58421L4.63346 10.3571C5.33545 11.6217 6.38844 12.6756 7.65202 13.3782L8.42421 12.418C8.7752 11.973 9.38359 11.8325 9.89839 12.0667L12.4957 13.1675C13.0573 13.4017 13.3615 14.034 13.2445 14.6195L12.6829 17.0552C12.6361 17.2894 12.4957 17.4767 12.332 17.6407C12.098 17.8749 11.7938 18.0388 11.4194 17.992C8.35401 18.0154 5.49925 16.7976 3.34648 14.6429C1.19371 12.4883 -0.0230683 9.63105 0.000331383 6.56303C0.000331383 5.95411 0.398126 5.46229 0.959717 5.32177L3.39328 4.75969C3.97827 4.64259 4.58666 4.92363 4.84406 5.50913L5.94384 8.10875C6.17784 8.62399 6.03744 9.23291 5.59285 9.58421ZM7.53502 14.5258C5.78005 13.6593 4.35267 12.2307 3.48688 10.4742C3.39328 10.24 3.44008 10.0058 3.62728 9.81841L4.91426 8.76451C4.91426 8.76451 4.91426 8.76451 4.93766 8.74109C4.98446 8.69425 5.03126 8.60057 4.98446 8.50689L3.81448 5.93069C3.79108 5.81359 3.67408 5.79017 3.58048 5.79017L1.17031 6.37567C1.12352 6.37567 1.10012 6.39909 1.07672 6.42251C1.02992 6.46935 1.00652 6.49277 1.00652 6.58645C1.00652 9.35001 2.1063 11.9496 4.07187 13.9169C6.03744 15.8842 8.65821 16.9615 11.4194 16.9615C11.5598 16.9615 11.63 16.8912 11.63 16.7976L12.215 14.3853C12.215 14.2916 12.1682 14.1979 12.0746 14.1511L9.50059 13.0269C9.40699 12.9801 9.2666 13.0269 9.2432 13.0972L8.19021 14.3853C8.04981 14.5727 7.76902 14.6195 7.53502 14.5258ZM7.58182 0.0991062C10.4366 -0.322454 13.2913 0.614346 15.3271 2.65189C17.3863 4.71285 18.3223 7.57009 17.9011 10.4273C17.8777 10.5444 17.8309 10.6381 17.7607 10.7084C17.6437 10.8255 17.4799 10.8957 17.3161 10.8723C17.0119 10.8489 16.8247 10.5678 16.8715 10.2868C17.2225 7.73403 16.4035 5.22809 14.5783 3.40133C12.7765 1.59799 10.2728 0.778286 7.72222 1.12959C7.44142 1.17643 7.16063 0.989066 7.13723 0.684606C7.09043 0.403566 7.27763 0.122526 7.58182 0.0991062ZM7.46482 3.16713C9.52399 2.79241 11.63 3.44817 13.0807 4.90021C14.5549 6.37567 15.2101 8.48347 14.8357 10.5444C14.8123 10.6615 14.7421 10.7318 14.6719 10.802C14.5549 10.9191 14.3911 10.9894 14.2039 10.9894C13.8997 10.9191 13.7125 10.6381 13.7827 10.3336C14.1103 8.64741 13.5721 6.89091 12.332 5.64965C11.1152 4.43181 9.3602 3.89315 7.67542 4.22103C7.37122 4.29129 7.09043 4.10393 7.02023 3.79947C6.97343 3.51843 7.16063 3.23739 7.46482 3.16713ZM7.88602 6.44593C8.9156 6.11805 10.0388 6.39909 10.811 7.17195C11.6066 7.96823 11.8874 9.09239 11.5598 10.1229C11.513 10.2165 11.4662 10.2634 11.396 10.3336C11.279 10.4507 11.0684 10.521 10.8812 10.4742C10.6004 10.3805 10.4366 10.076 10.5302 9.79499C10.7642 9.13923 10.6004 8.41321 10.0856 7.89797C9.59419 7.40615 8.8688 7.24221 8.21361 7.47641C7.93282 7.57009 7.62862 7.40615 7.53502 7.12511C7.44142 6.84407 7.60522 6.53961 7.88602 6.44593Z" fill="#261E1B"/>
</svg>
