<svg width="42" height="40" viewBox="0 0 42 40" fill="none" xmlns="http://www.w3.org/2000/svg">
<path d="M4.69366 24.3448C6.77747 24.3448 8.73707 24.331 10.6829 24.3448C11.7731 24.3587 12.3665 24.8158 12.4769 25.6885C12.6011 26.7828 11.9663 27.517 10.7795 27.5308C8.54387 27.5585 6.32206 27.5447 4.08646 27.5447C3.43786 27.5447 2.80306 27.5724 2.15446 27.5308C1.35406 27.4892 0.567455 27.323 0.181054 26.4919C-0.205346 25.6608 0.0706543 24.9128 0.595055 24.234C2.72026 21.519 4.85926 18.7901 6.99827 16.0751C7.12247 15.9089 7.24667 15.7427 7.37087 15.5903C7.23287 15.3548 7.03966 15.4656 6.87406 15.4518C5.38366 15.4379 3.87946 15.4518 2.38906 15.4379C2.04406 15.4379 1.69906 15.3964 1.36786 15.3271C0.581255 15.147 0.0982538 14.3575 0.277654 13.5817C0.401854 13.0554 0.815856 12.6259 1.34026 12.5013C1.67146 12.4182 2.01646 12.3766 2.36146 12.3766C4.81786 12.3627 7.28807 12.3627 9.74447 12.3766C10.1861 12.3627 10.6139 12.4182 11.0417 12.529C11.9801 12.8476 12.3803 13.7203 12.0077 14.6345C11.6765 15.4241 11.1521 16.1028 10.6277 16.7816C8.81987 19.0949 7.01207 21.3943 5.20426 23.6799C5.05246 23.86 4.91446 24.0401 4.69366 24.3448Z" fill="white"/>
<path d="M20.7007 17.0579C21.0319 16.6285 21.3769 16.2268 21.9427 16.116C23.0329 15.8944 24.0541 16.6008 24.0679 17.709C24.1093 20.4794 24.0955 23.2498 24.0679 26.0203C24.0679 26.7406 23.5987 27.3778 22.9225 27.5855C22.2325 27.8487 21.4459 27.6409 20.9905 27.0453C20.7559 26.7544 20.6593 26.699 20.3281 26.9622C19.0723 27.9873 17.6509 28.1673 16.1191 27.6687C13.6627 26.8652 12.6553 24.9398 12.3793 22.5988C12.0895 20.0638 12.9313 17.9029 15.1945 16.5731C17.0713 15.4511 18.9757 15.5481 20.7007 17.0579ZM15.8155 22.114C15.8431 22.7235 16.0363 23.3052 16.3951 23.7901C17.1403 24.7874 18.5617 24.9952 19.5691 24.2472C19.7347 24.1225 19.8865 23.9701 20.0245 23.7901C20.7973 22.7373 20.7973 21.0058 20.0245 19.953C19.6381 19.4128 19.0309 19.0942 18.3823 19.0803C16.8643 18.9834 15.8017 20.1608 15.8155 22.114ZM30.2641 22.1971C30.1537 18.6371 32.4859 15.9775 35.7979 15.8805C39.3169 15.7697 41.8837 18.1384 41.9941 21.6014C42.1045 25.106 39.9655 27.5855 36.6673 27.918C33.0655 28.2781 30.2089 25.6601 30.2641 22.1971ZM33.7279 21.8646C33.7003 22.5572 33.9073 23.236 34.3213 23.8039C35.0803 24.8013 36.5017 24.9952 37.4953 24.2195C37.6471 24.1087 37.7713 23.9701 37.8955 23.8316C38.6959 22.7789 38.6959 21.0058 37.9093 19.953C37.5229 19.4267 36.9157 19.0942 36.2671 19.0803C34.7767 18.9972 33.7279 20.1331 33.7279 21.8646ZM29.0497 19.4405C29.0497 21.5876 29.0635 23.7347 29.0497 25.8817C29.0635 26.8652 28.2907 27.6825 27.3109 27.7102C27.1453 27.7102 26.9659 27.6964 26.8003 27.6548C26.1103 27.4747 25.5859 26.7406 25.5859 25.8679V14.8555C25.5859 14.2044 25.5721 13.5672 25.5859 12.9162C25.5997 11.8495 26.2759 11.1569 27.2971 11.1569C28.3459 11.1431 29.0497 11.8357 29.0497 12.9439C29.0635 15.1048 29.0497 17.2796 29.0497 19.4405Z" fill="white"/>
</svg>
